<svg width="50" height="50" viewBox="0 0 50 50" fill="none" xmlns="http://www.w3.org/2000/svg">
<circle cx="25" cy="25" r="25" fill="#94ABFF" fill-opacity="0.7"/>
<path d="M39 12C39 14.7614 36.7614 17 34 17C31.2386 17 29 14.7614 29 12C29 9.23858 31.2386 7 34 7C36.7614 7 39 9.23858 39 12ZM29.988 12C29.988 14.2158 31.7842 16.012 34 16.012C36.2158 16.012 38.012 14.2158 38.012 12C38.012 9.78423 36.2158 7.98799 34 7.98799C31.7842 7.98799 29.988 9.78423 29.988 12Z" fill="black" fill-opacity="0.5"/>
<path d="M21 12C21 14.7614 18.7614 17 16 17C13.2386 17 11 14.7614 11 12C11 9.23858 13.2386 7 16 7C18.7614 7 21 9.23858 21 12ZM11.988 12C11.988 14.2158 13.7842 16.012 16 16.012C18.2158 16.012 20.012 14.2158 20.012 12C20.012 9.78423 18.2158 7.98799 16 7.98799C13.7842 7.98799 11.988 9.78423 11.988 12Z" fill="black" fill-opacity="0.5"/>
<path d="M12.5 42.5L10 20H22L19.5 42.5H12.5Z" stroke="black" stroke-opacity="0.5" stroke-linecap="round" stroke-linejoin="round"/>
<path d="M27 31L29 20H39L41 31H38L37 42.5H31L30 31H27Z" stroke="black" stroke-opacity="0.5" stroke-linecap="round" stroke-linejoin="round"/>
</svg>
