<svg width="50" height="50" viewBox="0 0 50 50" fill="none" xmlns="http://www.w3.org/2000/svg">
<circle cx="25" cy="25" r="25" fill="#94ABFF" fill-opacity="0.7"/>
<path d="M23.945 6.29201C24.3016 6.10033 24.7002 6 25.105 6C25.5099 6 25.9084 6.10033 26.265 6.29201C29.3095 8.0074 32.0525 10.2099 34.385 12.812C37.7247 16.388 40.6499 20.3296 43.105 24.562C43.1703 24.6745 43.2069 24.8014 43.2114 24.9314C43.2159 25.0614 43.1882 25.1905 43.1309 25.3073C43.0735 25.424 42.9882 25.5248 42.8825 25.6006C42.7768 25.6765 42.654 25.725 42.525 25.742L39.105 26.172C38.9477 26.1937 38.8035 26.2713 38.6988 26.3907C38.5941 26.5101 38.5359 26.6632 38.535 26.822V33.212C38.535 35.072 37.935 40.212 37.685 42.212C37.6625 42.4365 37.5564 42.6444 37.3879 42.7944C37.2194 42.9444 37.0006 43.0256 36.775 43.022H13.395C13.1694 43.0256 12.9507 42.9444 12.7821 42.7944C12.6136 42.6444 12.5075 42.4365 12.485 42.212C12.235 40.212 11.635 35.092 11.635 33.212V26.822C11.6341 26.6632 11.5759 26.5101 11.4713 26.3907C11.3666 26.2713 11.2223 26.1937 11.065 26.172L7.71501 25.742C7.58344 25.7295 7.45711 25.6841 7.34761 25.6101C7.2381 25.5361 7.14892 25.4358 7.08822 25.3184C7.02753 25.201 6.99726 25.0702 7.00019 24.938C7.00313 24.8059 7.03917 24.6766 7.10501 24.562C9.55077 20.3311 12.4659 16.3896 15.795 12.812C18.1366 10.2073 20.8898 8.00468 23.945 6.29201Z" stroke="black" stroke-opacity="0.5" stroke-linecap="round" stroke-linejoin="round"/>
<path d="M31.9351 43.0019C32.5351 38.8519 33.2051 23.6519 33.2051 18.7319C33.2051 18.7319 27.5651 25.1419 27.5051 31.6119V34.3119C27.505 34.6972 27.6466 35.0691 27.9029 35.3567C28.1592 35.6444 28.5123 35.8278 28.8951 35.8719L32.5051 36.3119M20.4351 20.0819C20.0116 27.7161 20.0116 35.3678 20.4351 43.0019" stroke="black" stroke-opacity="0.5" stroke-linecap="round" stroke-linejoin="round"/>
<path d="M17.275 19.9419C16.975 23.6519 16.725 30.0619 17.055 32.1919C17.415 34.5019 20.155 34.4919 20.155 34.4919C20.155 34.4919 23.255 34.2919 23.255 32.1919C23.235 30.8119 23.435 23.4619 23.525 20.0819" stroke="black" stroke-opacity="0.5" stroke-linecap="round" stroke-linejoin="round"/>
</svg>
