<svg width="50" height="50" viewBox="0 0 50 50" fill="none" xmlns="http://www.w3.org/2000/svg">
<circle cx="25" cy="25" r="25" fill="#94ABFF" fill-opacity="0.7"/>
<path d="M18.8548 35.0968L30.4839 33.4032C30.4839 29.7339 35.4516 25.1613 35.4516 18.9516C35.4516 12.9113 30.6532 8 24.7258 8C18.7984 8 14 12.9113 14 18.9516C14 25.1048 18.8548 29.6774 18.8548 33.3468V35.0968Z" stroke="black" stroke-opacity="0.5" stroke-linecap="round" stroke-linejoin="round"/>
<path d="M19.6453 37.5243L30.2582 35.8872" stroke="black" stroke-opacity="0.5" stroke-linecap="round" stroke-linejoin="round"/>
<path d="M19.6453 39.726L30.2582 38.0889" stroke="black" stroke-opacity="0.5" stroke-linecap="round" stroke-linejoin="round"/>
<path d="M28.8468 41.3628C28.8468 42.266 27.0968 42.9999 24.8952 42.9999C22.6936 42.9999 20.9436 42.266 20.9436 41.3628" stroke="black" stroke-opacity="0.5" stroke-linecap="round" stroke-linejoin="round"/>
<path d="M23.258 31.0322C23.258 24.0322 21.2822 21.5483 21.2822 21.5483C21.2822 21.5483 22.0725 23.2983 22.9758 23.2983C23.9355 23.2983 24.6693 22.508 24.6693 21.5483C24.6693 22.508 25.4596 23.2983 26.3629 23.2983C27.3225 23.2983 28.0564 21.5483 28.0564 21.5483C28.0564 21.5483 26.4758 25.3306 26.4758 31.0322" stroke="black" stroke-opacity="0.5" stroke-linecap="round" stroke-linejoin="round"/>
</svg>
