<svg width="35" height="35" viewBox="0 0 35 35" fill="none" xmlns="http://www.w3.org/2000/svg">
<path d="M35 17.5C35 27.165 27.165 35 17.5 35C7.83502 35 0 27.165 0 17.5C0 7.83502 7.83502 0 17.5 0C27.165 0 35 7.83502 35 17.5ZM2.50863 17.5C2.50863 25.7795 9.22049 32.4914 17.5 32.4914C25.7795 32.4914 32.4914 25.7795 32.4914 17.5C32.4914 9.22049 25.7795 2.50863 17.5 2.50863C9.22049 2.50863 2.50863 9.22049 2.50863 17.5Z" fill="#F0F8FF"/>
<path d="M11.5 11.5L23.5 23.5M23.5 11.5L11.5 23.5" stroke="#F0F8FF" stroke-width="2" stroke-linecap="round" stroke-linejoin="round"/>
</svg>
