<svg width="50" height="50" viewBox="0 0 50 50" fill="none" xmlns="http://www.w3.org/2000/svg">
<circle cx="25" cy="25" r="25" fill="#94ABFF"/>
<path d="M17.5925 16.2895H36.0135C36.2086 21.1521 35.6932 22.974 34.6319 24.1184M25.1911 32.4079H27.2635V29.1842H30.4872V25.0395H27.2635V21.8158H23.1188V25.0395H19.8951V29.1842H23.1188V32.4079H25.1911ZM25.1911 32.4079V43M15.2898 43H35.0925M30.9477 37.9342C34.5575 35.6975 34.5514 34.4289 30.9477 32.4079M18.974 21.3553C11.1442 17.6711 12.0653 8 15.7494 8H19.4346M15.2898 22.2763C15.4367 23.4602 15.7214 24.063 16.6714 25.0395" stroke="black" stroke-linecap="round" stroke-linejoin="round"/>
</svg>
