<svg width="20" height="24" viewBox="0 0 20 24" fill="none" xmlns="http://www.w3.org/2000/svg">
<path d="M14.4 3.6V2.4C14.4 1.76348 14.1471 1.15303 13.6971 0.702944C13.247 0.252856 12.6365 0 12 0H7.2C6.56348 0 5.95303 0.252856 5.50294 0.702944C5.05286 1.15303 4.8 1.76348 4.8 2.4V3.6C3.52696 3.6 2.30606 4.10571 1.40589 5.00589C0.505713 5.90606 0 7.12696 0 8.4V21.6C0 22.2365 0.252856 22.847 0.702944 23.2971C1.15303 23.7471 1.76348 24 2.4 24H16.8C17.4365 24 18.047 23.7471 18.4971 23.2971C18.9471 22.847 19.2 22.2365 19.2 21.6V8.4C19.2 7.12696 18.6943 5.90606 17.7941 5.00589C16.8939 4.10571 15.673 3.6 14.4 3.6ZM7.2 2.4H12V3.6H7.2V2.4ZM9.6 8.4L12 10.8L9.6 13.2L7.2 10.8L9.6 8.4ZM16.8 21.6H2.4V16.8H4.8V19.2H6V16.8H16.8V21.6ZM16.8 15.6H2.4V8.4C2.4 7.76348 2.65286 7.15303 3.10294 6.70294C3.55303 6.25286 4.16348 6 4.8 6H14.4C15.0365 6 15.647 6.25286 16.0971 6.70294C16.5471 7.15303 16.8 7.76348 16.8 8.4V15.6Z" fill="#F0F8FF"/>
</svg>
