<svg width="50" height="50" viewBox="0 0 50 50" fill="none" xmlns="http://www.w3.org/2000/svg">
<path d="M6.25 50C4.53125 50 3.06042 49.5341 1.8375 48.6024C0.612499 47.669 0 46.5476 0 45.2381V21.4286C0 20.119 0.612499 18.9976 1.8375 18.0643C3.06042 17.1325 4.53125 16.6667 6.25 16.6667H9.375V11.9048C9.375 8.61111 10.899 5.80317 13.9469 3.48095C16.9927 1.16032 20.6771 0 25 0C29.3229 0 33.0083 1.16032 36.0563 3.48095C39.1021 5.80317 40.625 8.61111 40.625 11.9048V16.6667H43.75C45.4688 16.6667 46.9406 17.1325 48.1656 18.0643C49.3885 18.9976 50 20.119 50 21.4286V45.2381C50 46.5476 49.3885 47.669 48.1656 48.6024C46.9406 49.5341 45.4688 50 43.75 50H6.25ZM6.25 45.2381H43.75V21.4286H6.25V45.2381ZM15.625 16.6667H34.375V11.9048C34.375 9.92063 33.4635 8.23413 31.6406 6.84524C29.8177 5.45635 27.6042 4.7619 25 4.7619C22.3958 4.7619 20.1823 5.45635 18.3594 6.84524C16.5365 8.23413 15.625 9.92063 15.625 11.9048V16.6667Z" fill="#0D6EFD"/>
</svg>
