<svg width="50" height="50" viewBox="0 0 50 50" fill="none" xmlns="http://www.w3.org/2000/svg">
<path d="M25 5.9375C25.8618 5.9375 26.7152 6.10724 27.5114 6.43704C28.3076 6.76684 29.031 7.25023 29.6404 7.85961C30.2498 8.469 30.7332 9.19244 31.063 9.98864C31.3928 10.7848 31.5625 11.6382 31.5625 12.5C31.5625 13.3618 31.3928 14.2152 31.063 15.0114C30.7332 15.8076 30.2498 16.531 29.6404 17.1404C29.031 17.7498 28.3076 18.2332 27.5114 18.563C26.7152 18.8928 25.8618 19.0625 25 19.0625C23.2595 19.0625 21.5903 18.3711 20.3596 17.1404C19.1289 15.9097 18.4375 14.2405 18.4375 12.5C18.4375 10.7595 19.1289 9.09032 20.3596 7.85961C21.5903 6.6289 23.2595 5.9375 25 5.9375M25 34.0625C34.2813 34.0625 44.0625 38.625 44.0625 40.625V44.0625H5.9375V40.625C5.9375 38.625 15.7187 34.0625 25 34.0625M25 0C18.0937 0 12.5 5.59375 12.5 12.5C12.5 19.4063 18.0937 25 25 25C31.9063 25 37.5 19.4063 37.5 12.5C37.5 5.59375 31.9063 0 25 0ZM25 28.125C16.6562 28.125 0 32.3125 0 40.625V46.875C0 48.5938 1.40625 50 3.125 50H46.875C48.5938 50 50 48.5938 50 46.875V40.625C50 32.3125 33.3438 28.125 25 28.125Z" fill="#0D6EFD"/>
</svg>
