<svg width="40" height="40" viewBox="0 0 40 40" fill="none" xmlns="http://www.w3.org/2000/svg">
<circle cx="20" cy="20" r="20" fill="#212529"/>
<path d="M20.1992 26C14.1166 26 8.66816 29.2153 5 33.5C8.66816 37.7847 14.1166 40 20.1992 40C26.2818 40 31.2302 37.7847 34.8983 33.5C31.2302 29.2153 26.2818 26 20.1992 26Z" fill="#F0F8FF"/>
<path d="M20 24.515L18.695 23.327C14.06 19.124 11 16.343 11 12.95C11 10.169 13.178 8 15.95 8C17.516 8 19.019 8.729 20 9.872C20.981 8.729 22.484 8 24.05 8C26.822 8 29 10.169 29 12.95C29 16.343 25.94 19.124 21.305 23.327L20 24.515Z" fill="#F0F8FF"/>
</svg>
