<svg width="165" height="76" viewBox="0 0 165 76" fill="none" xmlns="http://www.w3.org/2000/svg">
<path d="M13.3 17.6C14.0333 19.9333 15.4667 22.1 17.6 24.1C19.7333 26.1 22.2333 28.1 25.1 30.1C28.0333 32.0333 31.0333 34.1333 34.1 36.4C37.2333 38.6667 40.1667 41.2667 42.9 44.2C45.7 47.1333 47.9667 50.5667 49.7 54.5C49.3 57.1 48.3333 59.7333 46.8 62.4C45.2667 65 43.4333 67.3667 41.3 69.5C39.1667 71.6333 36.9667 73.3 34.7 74.5C32.3 74.9 29.5333 75.1667 26.4 75.3C23.2667 75.5 20 75.4333 16.6 75.1C13.2667 74.7667 10.0333 74.1 6.9 73.1C5.96667 72.3667 4.86667 71.2667 3.6 69.8C2.33333 68.3333 1.23333 66.9667 0.3 65.7L1.9 50.3C3.16667 49.9 4.63333 49.6333 6.3 49.5C8.03333 49.3667 9.56667 49.5 10.9 49.9L11.8 62.9C14.4667 63.3 17.3667 63.4333 20.5 63.3C23.7 63.1667 26.8333 62.8 29.9 62.2C33.0333 61.5333 35.7333 60.6 38 59.4C36.6667 56.7333 34.7667 54.3 32.3 52.1C29.8333 49.8333 27.1 47.6667 24.1 45.6C21.1667 43.4667 18.2333 41.3 15.3 39.1C12.3667 36.9 9.7 34.5667 7.3 32.1C4.96667 29.6333 3.2 26.8667 2 23.8C2.46667 21.2 3.26667 18.6333 4.4 16.1C5.6 13.5 6.96667 11.1667 8.5 9.1C10.1 6.96666 11.6667 5.36666 13.2 4.3C22.8667 1.56666 32.7 1.2 42.7 3.2C43.3667 3.6 44.0333 4.3 44.7 5.3C45.3667 6.23333 46 7.23333 46.6 8.3C47.2667 9.36666 47.8 10.2 48.2 10.8L46.7 24.4C45.4333 24.8667 44 25.1 42.4 25.1C40.8667 25.1 39.3333 24.9333 37.8 24.6L36.9 13.8C34.6333 13.6 32.1 13.6 29.3 13.8C26.5 13.9333 23.7 14.3 20.9 14.9C18.1 15.5 15.5667 16.4 13.3 17.6ZM110.904 15.9L88.4039 13.7L87.5039 41.7L87.8039 74.2L82.2039 75.6C80.4706 74.7333 78.7039 73.5667 76.9039 72.1C75.1039 70.5667 73.6372 68.7333 72.5039 66.6L77.2039 40.4L76.4039 14.2L60.6039 16.6C58.9372 15.5333 57.5039 14.4333 56.3039 13.3C55.1039 12.1667 53.8372 10.7333 52.5039 9L54.4039 3.2L83.2039 4L104.704 2.4C106.837 3.86667 108.537 5.23333 109.804 6.5C111.071 7.7 112.137 8.93333 113.004 10.2L110.904 15.9ZM127.851 17.6C128.584 19.9333 130.017 22.1 132.151 24.1C134.284 26.1 136.784 28.1 139.651 30.1C142.584 32.0333 145.584 34.1333 148.651 36.4C151.784 38.6667 154.717 41.2667 157.451 44.2C160.251 47.1333 162.517 50.5667 164.251 54.5C163.851 57.1 162.884 59.7333 161.351 62.4C159.817 65 157.984 67.3667 155.851 69.5C153.717 71.6333 151.517 73.3 149.251 74.5C146.851 74.9 144.084 75.1667 140.951 75.3C137.817 75.5 134.551 75.4333 131.151 75.1C127.817 74.7667 124.584 74.1 121.451 73.1C120.517 72.3667 119.417 71.2667 118.151 69.8C116.884 68.3333 115.784 66.9667 114.851 65.7L116.451 50.3C117.717 49.9 119.184 49.6333 120.851 49.5C122.584 49.3667 124.117 49.5 125.451 49.9L126.351 62.9C129.017 63.3 131.917 63.4333 135.051 63.3C138.251 63.1667 141.384 62.8 144.451 62.2C147.584 61.5333 150.284 60.6 152.551 59.4C151.217 56.7333 149.317 54.3 146.851 52.1C144.384 49.8333 141.651 47.6667 138.651 45.6C135.717 43.4667 132.784 41.3 129.851 39.1C126.917 36.9 124.251 34.5667 121.851 32.1C119.517 29.6333 117.751 26.8667 116.551 23.8C117.017 21.2 117.817 18.6333 118.951 16.1C120.151 13.5 121.517 11.1667 123.051 9.1C124.651 6.96666 126.217 5.36666 127.751 4.3C137.417 1.56666 147.251 1.2 157.251 3.2C157.917 3.6 158.584 4.3 159.251 5.3C159.917 6.23333 160.551 7.23333 161.151 8.3C161.817 9.36666 162.351 10.2 162.751 10.8L161.251 24.4C159.984 24.8667 158.551 25.1 156.951 25.1C155.417 25.1 153.884 24.9333 152.351 24.6L151.451 13.8C149.184 13.6 146.651 13.6 143.851 13.8C141.051 13.9333 138.251 14.3 135.451 14.9C132.651 15.5 130.117 16.4 127.851 17.6Z" fill="#F0F8FF"/>
</svg>
